<svg id="Layer_1" data-name="Layer 1" xmlns="http://www.w3.org/2000/svg" viewBox="0 0 81.79 46.33"><defs><style>.cls-1{opacity:0.5;}.cls-2{fill:#fff;}</style></defs><title>logo-white</title><g class="cls-1"><path class="cls-2" d="M30.3,6.06a5.23,5.23,0,0,1,5.23,5.23h0a5.23,5.23,0,0,1-5.23,5.22H8.51a5.22,5.22,0,0,1-5.22-5.22h0A5.23,5.23,0,0,1,8.51,6.06H30.3m0-1.79H8.51a7,7,0,0,0,0,14H30.3a7,7,0,1,0,0-14Z"/><path class="cls-2" d="M30.3,18.3a5.23,5.23,0,0,1,5.23,5.23h0a5.23,5.23,0,0,1-5.23,5.22H13.74v6.57a5.23,5.23,0,0,1-10.45,0V23.53h0A5.23,5.23,0,0,1,8.51,18.3H30.3m0-1.79H8.51a7,7,0,0,0-7,7V35.32a7,7,0,0,0,14,0V30.54H30.3a7,7,0,1,0,0-14Z"/><path class="cls-2" d="M64.33,6.06a5.23,5.23,0,0,1,5.23,5.23h0a5.23,5.23,0,0,1-5.23,5.22H42.54a5.22,5.22,0,0,1-5.22-5.22h0a5.23,5.23,0,0,1,5.22-5.23H64.33m0-1.79H42.54a7,7,0,0,0,0,14H64.33a7,7,0,1,0,0-14Z"/><path class="cls-2" d="M64.33,18.3a5.23,5.23,0,0,1,5.23,5.23h0a5.23,5.23,0,0,1-5.23,5.22H42.54a5.22,5.22,0,0,1-5.22-5.22h0a5.23,5.23,0,0,1,5.22-5.23H64.33m0-1.79H42.54a7,7,0,0,0,0,14H64.33a7,7,0,1,0,0-14Z"/><path class="cls-2" d="M64.33,30.54a5.23,5.23,0,0,1,5.23,5.22h0A5.23,5.23,0,0,1,64.33,41H42.54a5.23,5.23,0,0,1-5.22-5.23h0a5.22,5.22,0,0,1,5.22-5.22H64.33m0-1.79H42.54a7,7,0,0,0,0,14H64.33a7,7,0,1,0,0-14Z"/><circle class="cls-2" cx="36.41" cy="17.46" r="2.95"/><circle class="cls-2" cx="69.04" cy="17.46" r="1.8"/><circle class="cls-2" cx="69.04" cy="29.77" r="1.8"/><path class="cls-2" d="M72.72,33.4a1.06,1.06,0,0,0-.52.11.36.36,0,0,0-.19.34v.55h1.38v-.52a.4.4,0,0,0-.17-.36A.86.86,0,0,0,72.72,33.4Z"/><polygon class="cls-2" points="74.27 36.79 72.47 37.16 72.47 37.17 74.27 37.54 74.27 36.79"/><path class="cls-2" d="M73.36,24.52a1.13,1.13,0,0,0-.56-.12,1.18,1.18,0,0,0-.57.12.42.42,0,0,0-.22.38v.62h1.57V24.9A.42.42,0,0,0,73.36,24.52Z"/><path class="cls-2" d="M75,4.56l-.76.34a2.38,2.38,0,0,1-2-.36,2.35,2.35,0,0,0-3.42,2.11V40.42a2.36,2.36,0,0,0,2.35,2.37H76a2.36,2.36,0,0,0,2.35-2.37v-34A2.21,2.21,0,0,0,75,4.56ZM71.26,8.33H73.2V8.08L71.26,7.3v-1l2.2,1.08L76,6.2v1l-2,.78v.34h2v.83H71.26Zm0,1.5H76v.82H71.26Zm0,1.31H72v1h4V13H72v1h-.75ZM76,40.82H71.26V38.4H72V40h1.3V38.64h.74V40h2Zm0-4.4-1,.21V37.7l1,.21v.83l-4.78-1.15v-.86L76,35.59Zm0-3.13a.57.57,0,0,1-.34.12,3.87,3.87,0,0,1-.48,0h-.33a1.07,1.07,0,0,0-.56.11.35.35,0,0,0-.19.33v.52H76v.82H71.26V33.8a1.15,1.15,0,0,1,.36-.92,1.54,1.54,0,0,1,1-.31,1.26,1.26,0,0,1,.67.17,1.14,1.14,0,0,1,.42.47.78.78,0,0,1,.41-.46,1.73,1.73,0,0,1,.73-.14h.34a2.83,2.83,0,0,0,.41,0,.63.63,0,0,0,.32-.14H76ZM76,32H71.26V29.55H72v1.6H73.2V29.79h.74v1.36h1.35V29.54H76Zm0-2.86H71.26v-.83h4V26.8H76Zm0-2.77H71.26V24.9a1.19,1.19,0,0,1,.42-1,1.63,1.63,0,0,1,1.11-.36,1.66,1.66,0,0,1,1.12.36,1.19,1.19,0,0,1,.42,1v.62H76Zm0-3.29H71.26v-.83h4V20.73H76Zm0-4.87-1,.21v1.07l1,.21v.83l-4.78-1.15v-.86L76,17.35Zm-.33-1.5a1.52,1.52,0,0,1-1.16.43v-.83a1.06,1.06,0,0,0,.64-.15.59.59,0,0,0,.19-.48.41.41,0,0,0-.16-.36.74.74,0,0,0-.43-.11.77.77,0,0,0-.44.11,1.22,1.22,0,0,0-.32.43,2.89,2.89,0,0,1-.59,1,1.25,1.25,0,0,1-.92.31,1.25,1.25,0,0,1-1.33-1.33,1.22,1.22,0,0,1,.41-1,1.55,1.55,0,0,1,1.06-.36v.82a1,1,0,0,0-.54.13.44.44,0,0,0-.19.38.44.44,0,0,0,.16.37.75.75,0,0,0,.43.13.53.53,0,0,0,.39-.15,1.91,1.91,0,0,0,.34-.51,2.11,2.11,0,0,1,.58-.88,1.47,1.47,0,0,1,1-.29,1.31,1.31,0,0,1,1,.35,1.29,1.29,0,0,1,.35,1A1.43,1.43,0,0,1,75.71,16.68Z"/><polygon class="cls-2" points="74.27 18.55 72.47 18.92 72.47 18.93 74.27 19.3 74.27 18.55"/></g></svg>