<svg id="Layer_1" data-name="Layer 1" xmlns="http://www.w3.org/2000/svg" viewBox="0 0 239.5 154.41"><defs><style>.cls-1{fill:#f43b3b;}.cls-2{fill:#b8bbbc;}.cls-2,.cls-5{opacity:0.32;}.cls-3{fill:#ffc950;}.cls-4{fill:#d69c29;}.cls-5{fill:#fff;}</style></defs><title>illustration</title><path class="cls-1" d="M48,0H191.54a3.37,3.37,0,0,1,3.36,3.36V15.82H44.6V3.36A3.37,3.37,0,0,1,48,0Z"/><polygon class="cls-2" points="30.36 98.88 48.16 154.25 191.34 154.25 209.14 98.88 30.36 98.88"/><polygon class="cls-2" points="178.36 124.19 185.71 98.88 53.79 98.88 61.14 124.19 178.36 124.19"/><path class="cls-3" d="M38.07,41.13H201.43a3.37,3.37,0,0,1,3.36,3.37V57H34.71V44.5A3.37,3.37,0,0,1,38.07,41.13Z"/><path class="cls-4" d="M25.81,83.06H213.69a3.36,3.36,0,0,1,3.36,3.36V98.88H22.45V86.42A3.36,3.36,0,0,1,25.81,83.06Z"/><polygon class="cls-2" points="41.63 56.95 49.2 83.06 190.3 83.06 197.87 56.95 41.63 56.95"/><polygon class="cls-2" points="61.26 56.95 67.95 83.06 171.55 83.06 178.24 56.95 61.26 56.95"/><polygon class="cls-2" points="188.79 15.82 50.71 15.82 57.2 41.13 182.3 41.13 188.79 15.82"/><path class="cls-5" d="M30.36,98.88l17.8,55.37h.89c.44-25.05,18.45-53.76,99-55.34Z"/><path class="cls-5" d="M49.2,83.06h3.65C73.29,70.54,97.83,56,146.17,57H41.63Z"/><path class="cls-5" d="M50.71,15.82,57.15,41c23.68-25.13,85.09-25.13,85.09-25.13Z"/></svg>