<svg id="Layer_1" data-name="Layer 1" xmlns="http://www.w3.org/2000/svg" viewBox="0 0 239.5 154.41"><defs><style>.cls-1{fill:#ffc950;}.cls-2{fill:#d69c29;}.cls-3{fill:#d2555a;}.cls-4{fill:#be4b50;}.cls-5{fill:#ff6464;}</style></defs><title>illustration</title><path class="cls-1" d="M63.72,11.21l4.46,60.52a4.16,4.16,0,0,0,4.14,3.85H171.4a4.16,4.16,0,0,0,4.14-3.85L180,11.21ZM82.41,67.27a2.08,2.08,0,1,1-4.15,0V23.66a2.08,2.08,0,0,1,4.15,0Zm10.38,0a2.08,2.08,0,1,1-4.15,0V23.66a2.08,2.08,0,0,1,4.15,0Zm10.38,0a2.08,2.08,0,1,1-4.15,0V23.66a2.08,2.08,0,0,1,4.15,0Zm10.39,0a2.08,2.08,0,0,1-4.16,0V23.66a2.08,2.08,0,0,1,4.16,0Zm10.38,0a2.08,2.08,0,1,1-4.15,0V23.66a2.08,2.08,0,0,1,4.15,0Zm10.38,0a2.08,2.08,0,1,1-4.15,0V23.66a2.08,2.08,0,0,1,4.15,0Zm10.38,0a2.08,2.08,0,1,1-4.15,0V23.66a2.08,2.08,0,0,1,4.15,0Zm10.39,0a2.08,2.08,0,0,1-4.16,0V23.66a2.08,2.08,0,0,1,4.16,0Zm10.38,0a2.08,2.08,0,1,1-4.15,0V23.66a2.08,2.08,0,0,1,4.15,0Z"/><polygon class="cls-2" points="179.54 17.43 180 11.21 63.72 11.21 64.18 17.43 179.54 17.43"/><path class="cls-1" d="M180,13.28H63.72a2.08,2.08,0,0,1-2.08-2.07V2.9A2.08,2.08,0,0,1,63.72.82H180a2.08,2.08,0,0,1,2.08,2.08v8.31A2.08,2.08,0,0,1,180,13.28Z"/><path class="cls-3" d="M46.52,72.31l5.74,77.82a5.34,5.34,0,0,0,5.32,5H185a5.35,5.35,0,0,0,5.33-5L196,72.31Zm24,72.09a2.67,2.67,0,0,1-5.34,0V88.33a2.67,2.67,0,0,1,5.34,0Zm13.35,0a2.67,2.67,0,0,1-5.34,0V88.33a2.67,2.67,0,0,1,5.34,0Zm13.35,0a2.67,2.67,0,1,1-5.34,0V88.33a2.67,2.67,0,0,1,5.34,0Zm13.34,0a2.67,2.67,0,1,1-5.34,0V88.33a2.67,2.67,0,0,1,5.34,0Zm13.35,0a2.67,2.67,0,1,1-5.34,0V88.33a2.67,2.67,0,0,1,5.34,0Zm13.35,0a2.67,2.67,0,1,1-5.34,0V88.33a2.67,2.67,0,1,1,5.34,0Zm13.35,0a2.67,2.67,0,0,1-5.34,0V88.33a2.67,2.67,0,1,1,5.34,0Zm13.35,0a2.67,2.67,0,0,1-5.34,0V88.33a2.67,2.67,0,0,1,5.34,0Zm13.35,0a2.67,2.67,0,0,1-5.34,0V88.33a2.67,2.67,0,0,1,5.34,0Z"/><polygon class="cls-4" points="195.44 80.32 196.03 72.31 46.52 72.31 47.11 80.32 195.44 80.32"/><path class="cls-5" d="M196,75H46.52a2.67,2.67,0,0,1-2.67-2.67V61.63A2.68,2.68,0,0,1,46.52,59H196a2.68,2.68,0,0,1,2.67,2.67V72.31A2.67,2.67,0,0,1,196,75Z"/></svg>