<svg id="Layer_1" data-name="Layer 1" xmlns="http://www.w3.org/2000/svg" viewBox="0 0 239.5 154.41"><defs><style>.cls-1{fill:#d55b55;}.cls-2{fill:#ddd;}.cls-3{fill:#ffc950;}.cls-4{fill:#415661;}.cls-5{fill:#3a4d57;}.cls-6{fill:#f4f0d3;}.cls-7{fill:#d3d5d6;}.cls-8{fill:#c8cacb;}.cls-9{fill:#e8e4c8;}</style></defs><title>illustration</title><path class="cls-1" d="M144.53,20.93v120H121.82v-120Z"/><path class="cls-2" d="M121.82,20.93h-96A7.77,7.77,0,0,0,18,28.7V82.56h103.8Z"/><path class="cls-2" d="M121.82,115H18v18.53A7.42,7.42,0,0,0,25.44,141h96.38Z"/><path class="cls-1" d="M121.82,82.56H18V115h103.8Z"/><path class="cls-3" d="M144.53,50.12H118.85a6.67,6.67,0,0,1-6.76-6.28,6.49,6.49,0,0,1,6.49-6.69h7.79a5.12,5.12,0,0,0,5.16-4.48,5,5,0,0,0-5-5.46h-22.7a4.77,4.77,0,0,1,0-9.53h40.65Z"/><path class="cls-4" d="M173.48,70.1a2.27,2.27,0,0,1,2.13,2.25c-.12,12.4,9.78,20.36,18.48,20.3,5.77-.06,12-3.16,16.95-4a49.19,49.19,0,0,1,8.69-.67,10.15,10.15,0,0,1,7.24,3.1,10.58,10.58,0,0,1-7.24,18.05h-.24a52.4,52.4,0,0,1-8.39-.61c-4.92-.79-11.12-3.83-16.89-3.77-8.69.06-18.66,8.09-18.72,20.42a2.07,2.07,0,0,1-.73,1.58,2.35,2.35,0,0,1-1.58.61l-15.74.06.3-57.19Z"/><path class="cls-5" d="M173.12,127.35a2.85,2.85,0,0,0,1.58-.61,2.28,2.28,0,0,0,.73-1.58c.06-12.33,10-20.42,18.72-20.42,5.77-.06,12,3,16.89,3.77a52.4,52.4,0,0,0,8.39.61h.24a11.06,11.06,0,0,0,7.24-3.1,10.78,10.78,0,0,0,3.1-7.48l-70.93-.06-1.7,25.29v3.64Z"/><path class="cls-6" d="M106.56,124.49l-.06-52a3,3,0,0,1,3-3h33.67a3,3,0,0,1,3,3l.12,52a3,3,0,0,1-3,3l-33.74-.06A3,3,0,0,1,106.56,124.49Z"/><path class="cls-7" d="M143.64,127.53l-2.92-58,21.64.61,2.31,57.25Z"/><path class="cls-8" d="M143.64,127.53,142.12,98.3l21.39.12,1.22,28.93Z"/><path class="cls-9" d="M106.5,76.9A1.5,1.5,0,0,0,108,78.42l26.2.06a1.52,1.52,0,1,0,0-3L108,75.39A1.5,1.5,0,0,0,106.5,76.9Zm0,7.3A1.51,1.51,0,0,0,108,85.72l26.2.06a1.52,1.52,0,1,0,0-3L108,82.68A1.51,1.51,0,0,0,106.5,84.2Zm.06,14.65a1.51,1.51,0,0,0,1.52,1.52l26.14.12a1.52,1.52,0,1,0,0-3l-26.14-.12A1.51,1.51,0,0,0,106.56,98.85Zm0,7.29a1.51,1.51,0,0,0,1.52,1.52l26.14.12a1.52,1.52,0,0,0,0-3l-26.14-.12A1.51,1.51,0,0,0,106.56,106.14Zm0,7.41a1.5,1.5,0,0,0,1.52,1.52h26.14a1.52,1.52,0,1,0,0-3L108.14,112A1.61,1.61,0,0,0,106.56,113.55Zm0,7.3a1.51,1.51,0,0,0,1.52,1.52l26.2.06a1.52,1.52,0,1,0,0-3l-26.2-.06A1.51,1.51,0,0,0,106.56,120.85Z"/></svg>