<svg id="Layer_1" data-name="Layer 1" xmlns="http://www.w3.org/2000/svg" viewBox="0 0 239.5 154.41"><defs><style>.cls-1{fill:#d55b55;}.cls-2{fill:#ddd;}.cls-3{fill:#ffc950;}.cls-4{fill:#415661;}.cls-5{fill:#3a4d57;}.cls-6{fill:#f4f0d3;}.cls-7{fill:#d3d5d6;}.cls-8{fill:#c8cacb;}.cls-9{fill:#e8e4c8;}</style></defs><title>illustration_6</title><path class="cls-1" d="M142.63,12V146H117.27V12Z"/><path class="cls-2" d="M117.27,12H10a8.69,8.69,0,0,0-8.69,8.69V80.83H117.27Z"/><path class="cls-2" d="M117.27,117.06H1.33v20.7A8.28,8.28,0,0,0,9.61,146H117.26Z"/><path class="cls-1" d="M117.27,80.83H1.33v36.23H117.27Z"/><path class="cls-3" d="M142.63,44.6H114a7.45,7.45,0,0,1-7.55-7,7.25,7.25,0,0,1,7.24-7.47h8.71a5.71,5.71,0,0,0,5.76-5,5.56,5.56,0,0,0-5.52-6.1H97.23a5.32,5.32,0,0,1,0-10.64h45.4Z"/><path class="cls-4" d="M175,66.91a2.53,2.53,0,0,1,2.37,2.51C177.21,83.27,188.27,92.16,198,92.1c6.45-.07,13.44-3.53,18.94-4.42a55.56,55.56,0,0,1,9.71-.74,11.34,11.34,0,0,1,8.07,3.46,11.81,11.81,0,0,1-8.07,20.16h-.28a58.47,58.47,0,0,1-9.36-.68c-5.5-.88-12.43-4.27-18.88-4.21-9.7.07-20.84,9-20.9,22.81a2.3,2.3,0,0,1-.82,1.77,2.64,2.64,0,0,1-1.76.68L157,131l.34-63.87Z"/><path class="cls-5" d="M174.56,130.86a3.16,3.16,0,0,0,1.76-.68,2.52,2.52,0,0,0,.82-1.76c.07-13.79,11.13-22.81,20.91-22.81,6.45-.07,13.44,3.39,18.87,4.2a58.51,58.51,0,0,0,9.37.68h.27a12.26,12.26,0,0,0,8.08-3.46,12,12,0,0,0,3.46-8.35l-79.22-.07L157,126.85v4.08Z"/><path class="cls-6" d="M100.23,127.67l-.07-58a3.36,3.36,0,0,1,3.39-3.4h37.61a3.36,3.36,0,0,1,3.39,3.4l.14,58.11a3.36,3.36,0,0,1-3.39,3.39l-37.68-.07A3.35,3.35,0,0,1,100.23,127.67Z"/><path class="cls-7" d="M141.63,131.06,138.38,66.3l24.16.68,2.58,64Z"/><path class="cls-8" d="M141.63,131.06l-1.69-32.65,23.89.14,1.36,32.31Z"/><path class="cls-9" d="M100.16,74.51a1.67,1.67,0,0,0,1.69,1.7l29.26.07a1.7,1.7,0,1,0,0-3.39l-29.26-.07A1.67,1.67,0,0,0,100.16,74.51Zm0,8.15a1.68,1.68,0,0,0,1.69,1.7l29.26.07a1.7,1.7,0,0,0,0-3.4L101.85,81A1.68,1.68,0,0,0,100.16,82.66ZM100.23,99a1.68,1.68,0,0,0,1.69,1.7l29.19.13a1.7,1.7,0,1,0,0-3.39l-29.19-.14A1.68,1.68,0,0,0,100.23,99Zm0,8.15a1.67,1.67,0,0,0,1.69,1.69l29.19.14a1.7,1.7,0,1,0,0-3.39l-29.19-.14A1.68,1.68,0,0,0,100.23,107.17Zm0,8.28a1.68,1.68,0,0,0,1.69,1.7h29.19a1.7,1.7,0,0,0,0-3.4L102,113.68A1.8,1.8,0,0,0,100.23,115.45Zm0,8.15a1.67,1.67,0,0,0,1.69,1.69l29.26.07a1.7,1.7,0,1,0,0-3.39l-29.26-.07A1.68,1.68,0,0,0,100.23,123.6Z"/></svg>