<svg id="Layer_1" data-name="Layer 1" xmlns="http://www.w3.org/2000/svg" viewBox="0 0 239.5 154.41"><defs><style>.cls-1{fill:#d69c29;}.cls-2{fill:#ffc950;}.cls-3{fill:#f43b3b;}.cls-4{fill:#e6e6e6;}.cls-5{fill:#b3b3b3;}.cls-6{fill:#f5846f;}.cls-7{fill:#d55b55;}</style></defs><title>illustration</title><path class="cls-1" d="M171.26,61.78a4.13,4.13,0,0,0-3.11,1.43l-4.22,5-4.24-5a4.14,4.14,0,0,0-3.09-1.4,4.09,4.09,0,0,0-3.11,1.43S129.21,92,113.23,110.9v18.84h0v0a4.13,4.13,0,0,0,4.13,4.13H225.17a4.13,4.13,0,0,0,3.19-6.75h0l-54-64A4.13,4.13,0,0,0,171.26,61.78Z"/><path class="cls-2" d="M168.15,63.21l-54,63.94h0a4.13,4.13,0,0,0,3.19,6.75h53.91V61.78A4.13,4.13,0,0,0,168.15,63.21Z"/><path class="cls-3" d="M79,51.41l11-11a6.1,6.1,0,0,1,8.62,0L108.8,50.59,93.39,66,79.11,51.71"/><path class="cls-4" d="M172.6,111.49a5.8,5.8,0,1,1,0,11.6H16a5.8,5.8,0,0,1,0-11.6"/><path class="cls-5" d="M14.76,123.09l14.5,11.6H142.35l11.6-11.6"/><path class="cls-6" d="M42.1,25.52v86H143.6L94.3,65,49.18,22.47A4.2,4.2,0,0,0,42.1,25.52Z"/><path class="cls-7" d="M94.3,65l42.63-42.56a3.91,3.91,0,0,1,6.67,2.77v86.27"/></svg>