<svg id="Layer_1" data-name="Layer 1" xmlns="http://www.w3.org/2000/svg" viewBox="0 0 239.5 154.41"><defs><style>.cls-1{fill:#fff;}.cls-2{fill:#ffc950;}.cls-3{fill:#f5846f;}.cls-4{fill:#a5dc69;}.cls-5{fill:#d69c29;}.cls-6{fill:#e5e5e5;}.cls-7{fill:#f43b3b;}</style></defs><title>illustration</title><path class="cls-1" d="M196.56,115.2v6.24a6.24,6.24,0,0,1-6.24,6.25H49.18a6.24,6.24,0,0,1-6.24-6.25V115.2A6.24,6.24,0,0,1,49.18,109H98.93L101,115.2h37.46l2.09-6.25h49.75A6.24,6.24,0,0,1,196.56,115.2Z"/><path class="cls-2" d="M185.26,86.83,190.32,109H140.57l-2.09,6.25H101L98.93,109H49.18l5.06-22.12A6.26,6.26,0,0,1,60.3,82.1H179.2A6.26,6.26,0,0,1,185.26,86.83Z"/><path class="cls-2" d="M190.32,127.69l-5.06,22.12a6.26,6.26,0,0,1-6.06,4.73H60.3a6.26,6.26,0,0,1-6.06-4.73l-5.06-22.12Z"/><path class="cls-3" d="M154.1,44.63c0,17.24-11.19,37.47-25,37.47H110.38c-13.79,0-25-20.23-25-37.47s11.19-25,25-25a20.59,20.59,0,0,1,9.32,2.24v0h0a20.52,20.52,0,0,1,10.16-2.26C143.34,20,154.1,27.71,154.1,44.63Z"/><path class="cls-4" d="M126.26,7.11c-4.85,4.85-6.17,11.76-6.51,14.39v.42l10.16-2.26a20.27,20.27,0,0,0,5.18-3.72c6.1-6.09,6.63-15,6.63-15S132.36,1,126.26,7.11Z"/><path class="cls-5" d="M119.75,127.69H49.18l5.06,22.12a6.26,6.26,0,0,0,6.06,4.73h59.45Z"/><path class="cls-6" d="M119.75,115.2H101L98.93,109H49.18a6.24,6.24,0,0,0-6.24,6.25v6.24a6.24,6.24,0,0,0,6.24,6.25h70.57Z"/><path class="cls-5" d="M119.75,82.1H60.3a6.26,6.26,0,0,0-6.06,4.73L49.18,109H98.93L101,115.2h18.73Z"/><path class="cls-7" d="M119.7,21.89a20.59,20.59,0,0,0-9.32-2.24c-13.79,0-25,7.73-25,25s11.19,37.47,25,37.47h9.37V21.92h0Z"/></svg>