<svg id="Layer_1" data-name="Layer 1" xmlns="http://www.w3.org/2000/svg" viewBox="0 0 239.5 154.41"><defs><style>.cls-1{fill:#ff9811;}.cls-2{fill:#ffa733;}.cls-3{fill:#ee8700;}.cls-4{fill:#ffc477;}.cls-5{fill:#d47800;}.cls-6{fill:#d2555a;}.cls-7{fill:#ff6464;}.cls-8{fill:#f5846f;}.cls-9{fill:#be4b50;}</style></defs><title>illustration</title><path class="cls-1" d="M110.06,64.94h72.13l16,64.11V56.92a8,8,0,0,0-8-8H102.05a8,8,0,0,0-8,8v72.13Z"/><path class="cls-2" d="M110.06,64.94,98,113h96.17l-12-48.08Z"/><path class="cls-3" d="M154.14,8.84a8,8,0,1,0-16,0V48.91h16Z"/><path class="cls-4" d="M194.21,113H98l-4,16H198.22Z"/><path class="cls-5" d="M138.11,40.89h16v8h-16Z"/><path class="cls-6" d="M57.31,91h72.13l16,64.12V83a8,8,0,0,0-8-8H49.29a8,8,0,0,0-8,8v72.13Z"/><path class="cls-7" d="M57.31,91l-12,48.09h96.17L129.44,91Z"/><path class="cls-6" d="M101.39,34.86a8,8,0,0,0-16,0V74.93h16Z"/><path class="cls-8" d="M141.37,139.06H45.28l-4,16h104.1Z"/><path class="cls-9" d="M85.36,66.92h16v8h-16Z"/></svg>