<svg id="Layer_1" data-name="Layer 1" xmlns="http://www.w3.org/2000/svg" viewBox="0 0 239.5 154.41"><defs><style>.cls-1{fill:#f5846f;}.cls-2{fill:#f43b3b;}.cls-3{fill:#f2f2f2;}.cls-4{fill:#e5e5e5;}.cls-5{fill:#ffc950;}.cls-6{fill:#d69c29;}</style></defs><title>illustration</title><polygon class="cls-1" points="103.78 149.49 30.4 149.49 16.64 25.66 117.54 25.66 103.78 149.49"/><polygon class="cls-2" points="67.09 25.66 67.09 149.49 103.78 149.49 117.54 25.66 67.09 25.66"/><path class="cls-3" d="M117.54,30.24H16.64A13.8,13.8,0,0,1,2.88,16.48h0A13.8,13.8,0,0,1,16.64,2.73h100.9A13.8,13.8,0,0,1,131.3,16.48h0A13.8,13.8,0,0,1,117.54,30.24Z"/><path class="cls-4" d="M117.54,2.73H67.09V30.24h50.45A13.8,13.8,0,0,0,131.3,16.48h0A13.8,13.8,0,0,0,117.54,2.73Z"/><path class="cls-5" d="M209.78,71.34c-.37,0-.74,0-1.11,0a27,27,0,1,0,1.11,0Zm0,41.33a14,14,0,0,1-2.35-.19A14.38,14.38,0,0,1,208.67,84c.37,0,.74,0,1.11,0a14.38,14.38,0,0,1,0,28.76Z"/><path class="cls-6" d="M195.4,98.29a14.39,14.39,0,0,0,12,14.19,50.86,50.86,0,0,1-4.29,11.94,27,27,0,0,1,5.53-53.06V84A14.39,14.39,0,0,0,195.4,98.29Z"/><path class="cls-5" d="M201.71,67.4v33.28c0,28.26-22.63,51.61-50.88,51.81A51.19,51.19,0,0,1,99.2,101.24V67.4a3.7,3.7,0,0,1,3.7-3.69H198A3.69,3.69,0,0,1,201.71,67.4Z"/><path class="cls-6" d="M201.71,90.67v10.57a51.26,51.26,0,0,1-102.51,0V90.67a51.26,51.26,0,1,0,102.51,0Z"/><rect class="cls-6" x="99.2" y="72.17" width="102.51" height="5.6"/></svg>