<svg id="Layer_1" data-name="Layer 1" xmlns="http://www.w3.org/2000/svg" viewBox="0 0 239.5 154.41"><defs><style>.cls-1{fill:#ffc950}</style></defs><path class="cls-1" d="M63.72 11.21l4.46 60.52a4.16 4.16 0 0 0 4.14 3.85h99.08a4.16 4.16 0 0 0 4.14-3.85L180 11.21zm18.69 56.06a2.08 2.08 0 1 1-4.15 0V23.66a2.08 2.08 0 0 1 4.15 0zm10.38 0a2.08 2.08 0 1 1-4.15 0V23.66a2.08 2.08 0 0 1 4.15 0zm10.38 0a2.08 2.08 0 1 1-4.15 0V23.66a2.08 2.08 0 0 1 4.15 0zm10.39 0a2.08 2.08 0 0 1-4.16 0V23.66a2.08 2.08 0 0 1 4.16 0zm10.38 0a2.08 2.08 0 1 1-4.15 0V23.66a2.08 2.08 0 0 1 4.15 0zm10.38 0a2.08 2.08 0 1 1-4.15 0V23.66a2.08 2.08 0 0 1 4.15 0zm10.38 0a2.08 2.08 0 1 1-4.15 0V23.66a2.08 2.08 0 0 1 4.15 0zm10.39 0a2.08 2.08 0 0 1-4.16 0V23.66a2.08 2.08 0 0 1 4.16 0zm10.38 0a2.08 2.08 0 1 1-4.15 0V23.66a2.08 2.08 0 0 1 4.15 0z"/><path fill="#d69c29" d="M179.54 17.43l.46-6.22H63.72l.46 6.22h115.36z"/><path class="cls-1" d="M180 13.28H63.72a2.08 2.08 0 0 1-2.08-2.07V2.9A2.08 2.08 0 0 1 63.72.82H180a2.08 2.08 0 0 1 2.08 2.08v8.31a2.08 2.08 0 0 1-2.08 2.07z"/><path d="M46.52 72.31l5.74 77.82a5.34 5.34 0 0 0 5.32 5H185a5.35 5.35 0 0 0 5.33-5L196 72.31zm24 72.09a2.67 2.67 0 0 1-5.34 0V88.33a2.67 2.67 0 0 1 5.34 0zm13.35 0a2.67 2.67 0 0 1-5.34 0V88.33a2.67 2.67 0 0 1 5.34 0zm13.35 0a2.67 2.67 0 1 1-5.34 0V88.33a2.67 2.67 0 0 1 5.34 0zm13.34 0a2.67 2.67 0 1 1-5.34 0V88.33a2.67 2.67 0 0 1 5.34 0zm13.35 0a2.67 2.67 0 1 1-5.34 0V88.33a2.67 2.67 0 0 1 5.34 0zm13.35 0a2.67 2.67 0 1 1-5.34 0V88.33a2.67 2.67 0 1 1 5.34 0zm13.35 0a2.67 2.67 0 0 1-5.34 0V88.33a2.67 2.67 0 1 1 5.34 0zm13.35 0a2.67 2.67 0 0 1-5.34 0V88.33a2.67 2.67 0 0 1 5.34 0zm13.35 0a2.67 2.67 0 0 1-5.34 0V88.33a2.67 2.67 0 0 1 5.34 0z" fill="#d2555a"/><path fill="#be4b50" d="M195.44 80.32l.59-8.01H46.52l.59 8.01h148.33z"/><path d="M196 75H46.52a2.67 2.67 0 0 1-2.67-2.67v-10.7A2.68 2.68 0 0 1 46.52 59H196a2.68 2.68 0 0 1 2.67 2.67v10.64A2.67 2.67 0 0 1 196 75z" fill="#ff6464"/></svg>