<svg id="Layer_1" data-name="Layer 1" xmlns="http://www.w3.org/2000/svg" viewBox="0 0 239.5 154.41"><defs><style>.cls-5{fill:#d69c29}</style></defs><path d="M196.56 115.2v6.24a6.24 6.24 0 0 1-6.24 6.25H49.18a6.24 6.24 0 0 1-6.24-6.25v-6.24a6.24 6.24 0 0 1 6.24-6.2h49.75l2.07 6.2h37.46l2.09-6.25h49.75a6.24 6.24 0 0 1 6.26 6.25z" fill="#fff"/><path d="M185.26 86.83l5.06 22.17h-49.75l-2.09 6.25H101L98.93 109H49.18l5.06-22.12a6.26 6.26 0 0 1 6.06-4.78h118.9a6.26 6.26 0 0 1 6.06 4.73zm5.06 40.86l-5.06 22.12a6.26 6.26 0 0 1-6.06 4.73H60.3a6.26 6.26 0 0 1-6.06-4.73l-5.06-22.12z" fill="#ffc950"/><path d="M154.1 44.63c0 17.24-11.19 37.47-25 37.47h-18.72c-13.79 0-25-20.23-25-37.47s11.19-25 25-25a20.59 20.59 0 0 1 9.32 2.24 20.52 20.52 0 0 1 10.16-2.26c13.48.39 24.24 8.1 24.24 25.02z" fill="#f5846f"/><path d="M126.26 7.11c-4.85 4.85-6.17 11.76-6.51 14.39v.42l10.16-2.26a20.27 20.27 0 0 0 5.18-3.72c6.1-6.09 6.63-15 6.63-15s-9.36.06-15.46 6.17z" fill="#a5dc69"/><path class="cls-5" d="M119.75 127.69H49.18l5.06 22.12a6.26 6.26 0 0 0 6.06 4.73h59.45z"/><path d="M119.75 115.2H101l-2.07-6.2H49.18a6.24 6.24 0 0 0-6.24 6.25v6.24a6.24 6.24 0 0 0 6.24 6.25h70.57z" fill="#e5e5e5"/><path class="cls-5" d="M119.75 82.1H60.3a6.26 6.26 0 0 0-6.06 4.73L49.18 109h49.75l2.07 6.2h18.73z"/><path d="M119.7 21.89a20.59 20.59 0 0 0-9.32-2.24c-13.79 0-25 7.73-25 25s11.19 37.47 25 37.47h9.37v-60.2z" fill="#f43b3b"/></svg>