<svg id="Layer_1" data-name="Layer 1" xmlns="http://www.w3.org/2000/svg" viewBox="0 0 239.5 154.41"><defs><style>.cls-5{fill:#ffc950}.cls-6{fill:#d69c29}</style></defs><path fill="#f5846f" d="M103.78 149.49H30.4L16.64 25.66h100.9l-13.76 123.83z"/><path fill="#f43b3b" d="M67.09 25.66v123.83h36.69l13.76-123.83H67.09z"/><path d="M117.54 30.24H16.64A13.8 13.8 0 0 1 2.88 16.48 13.8 13.8 0 0 1 16.64 2.73h100.9a13.8 13.8 0 0 1 13.76 13.75 13.8 13.8 0 0 1-13.76 13.76z" fill="#f2f2f2"/><path d="M117.54 2.73H67.09v27.51h50.45a13.8 13.8 0 0 0 13.76-13.76 13.8 13.8 0 0 0-13.76-13.75z" fill="#e5e5e5"/><path class="cls-5" d="M209.78 71.34h-1.11a27 27 0 1 0 1.11 0zm0 41.33a14 14 0 0 1-2.35-.19A14.38 14.38 0 0 1 208.67 84h1.11a14.38 14.38 0 0 1 0 28.76z"/><path class="cls-6" d="M195.4 98.29a14.39 14.39 0 0 0 12 14.19 50.86 50.86 0 0 1-4.29 11.94 27 27 0 0 1 5.53-53.06V84a14.39 14.39 0 0 0-13.24 14.29z"/><path class="cls-5" d="M201.71 67.4v33.28c0 28.26-22.63 51.61-50.88 51.81a51.19 51.19 0 0 1-51.63-51.25V67.4a3.7 3.7 0 0 1 3.7-3.69H198a3.69 3.69 0 0 1 3.71 3.69z"/><path class="cls-6" d="M201.71 90.67v10.57a51.26 51.26 0 0 1-102.51 0V90.67a51.26 51.26 0 1 0 102.51 0zM99.2 72.17h102.51v5.6H99.2z"/></svg>