<svg id="Layer_1" data-name="Layer 1" xmlns="http://www.w3.org/2000/svg" viewBox="0 0 239.5 154.41"><defs><style>.cls-2{fill:#b8bbbc;opacity:.32}</style></defs><path d="M48 0h143.54a3.37 3.37 0 0 1 3.36 3.36v12.46H44.6V3.36A3.37 3.37 0 0 1 48 0z" fill="#f43b3b"/><path class="cls-2" d="M30.36 98.88l17.8 55.37h143.18l17.8-55.37H30.36z"/><path class="cls-2" d="M178.36 124.19l7.35-25.31H53.79l7.35 25.31h117.22z"/><path d="M38.07 41.13h163.36a3.37 3.37 0 0 1 3.36 3.37V57H34.71V44.5a3.37 3.37 0 0 1 3.36-3.37z" fill="#ffc950"/><path d="M25.81 83.06h187.88a3.36 3.36 0 0 1 3.36 3.36v12.46H22.45V86.42a3.36 3.36 0 0 1 3.36-3.36z" fill="#d69c29"/><path class="cls-2" d="M41.63 56.95l7.57 26.11h141.1l7.57-26.11H41.63z"/><path class="cls-2" d="M61.26 56.95l6.69 26.11h103.6l6.69-26.11H61.26zm127.53-41.13H50.71l6.49 25.31h125.1l6.49-25.31z"/><path d="M30.36 98.88l17.8 55.37h.89c.44-25.05 18.45-53.76 99-55.34zM49.2 83.06h3.65C73.29 70.54 97.83 56 146.17 57H41.63zm1.51-67.24L57.15 41c23.68-25.13 85.09-25.13 85.09-25.13z" fill="#fff" opacity=".32"/></svg>