<svg id="Layer_1" data-name="Layer 1" xmlns="http://www.w3.org/2000/svg" viewBox="0 0 239.5 154.41"><defs><style>.cls-6{fill:#0baebc;opacity:.5}</style></defs><path d="M132.8 68.63l-22.18 3.13a25.75 25.75 0 0 1-7.3 0l-22.17-3.13c-20.7-3-39.69 14-39.69 35 0 20.87 18.73 37.13 39.69 34.17l22.17-3.13a25.75 25.75 0 0 1 7.3 0c21.48 3 23.16 3.48 27.34 3.48a34.55 34.55 0 0 0 34.52-34.52c0-21-18.9-37.96-39.68-35z" fill="#dd4563"/><path d="M172.48 103.67A34.55 34.55 0 0 1 138 138.19c-4.18 0-5.86-.52-27.33-3.48a26.5 26.5 0 0 0-3.66-.26V72a26.5 26.5 0 0 0 3.66-.26l22.17-3.13c20.74-2.94 39.64 14.02 39.64 35.06z" fill="#d21f3c"/><path d="M128.54 94.28A51.54 51.54 0 0 1 107 99a52.27 52.27 0 0 1-21.56-4.6 4.24 4.24 0 0 1-2.26-5.66 4.31 4.31 0 0 1 5.74-2.26A44.58 44.58 0 0 0 107 90.37a43.38 43.38 0 0 0 18-4 4.34 4.34 0 0 1 3.57 7.92z" fill="#e59a95"/><path d="M185.1 109.61v20a22.89 22.89 0 0 1-22.89 22.89H51.73a22.89 22.89 0 0 1-22.89-22.89v-20a2.84 2.84 0 0 1 2.84-2.84h150.58a2.84 2.84 0 0 1 2.84 2.84z" fill="#ffc950"/><path d="M185.1 111.35v18.31a22.89 22.89 0 0 1-22.89 22.89H107v-45.78h73.55a4.54 4.54 0 0 1 4.55 4.58z" fill="#d69c29"/><circle class="cls-6" cx="167.34" cy="13.65" r="11.79"/><circle class="cls-6" cx="126.53" cy="34.02" r="8.67"/><circle class="cls-6" cx="188.03" cy="57.59" r="5.97"/></svg>